<svg width="56" height="56" viewBox="0 0 56 56" fill="none" xmlns="http://www.w3.org/2000/svg">
<g filter="url(#filter0_dd_273_4925)">
<rect x="4" width="48" height="48" rx="10" fill="#281E1E"/>
<path d="M27.9998 3.16675C33.5249 3.16675 38.8242 5.36151 42.7312 9.26831C46.6381 13.1752 48.8337 18.4745 48.8337 23.9998C48.8337 29.5251 46.6382 34.8242 42.7312 38.7312C38.8242 42.6382 33.5251 44.8337 27.9998 44.8337C22.4745 44.8337 17.1752 42.6381 13.2683 38.7312C9.36151 34.8242 7.16675 29.5249 7.16675 23.9998C7.16683 18.4745 9.36138 13.1752 13.2683 9.26831C17.1752 5.36138 22.4745 3.16683 27.9998 3.16675ZM39.0642 7.12183L21.364 9.90112L21.0212 9.95483L20.9519 10.2957L19.5642 17.1384L12.8035 17.5779L12.4216 17.6023L12.3455 17.9773L11.1013 24.0964L10.822 25.4685L11.907 24.5828L15.1423 21.9421L25.947 32.7664V32.7673L34.7244 42.5925L35.5486 42.0447L33.9578 38.7048L34.5417 39.3142L35.3406 38.7263L26.6013 22.9519L30.1404 18.5349L44.3337 12.6589L44.1316 11.698L31.9441 11.9675L39.3748 8.05835L39.0642 7.12183Z" fill="#3266AA" stroke="#E2DDD0"/>
</g>
<defs>
<filter id="filter0_dd_273_4925" x="0" y="0" width="56" height="56" filterUnits="userSpaceOnUse" color-interpolation-filters="sRGB">
<feFlood flood-opacity="0" result="BackgroundImageFix"/>
<feColorMatrix in="SourceAlpha" type="matrix" values="0 0 0 0 0 0 0 0 0 0 0 0 0 0 0 0 0 0 127 0" result="hardAlpha"/>
<feOffset dy="4"/>
<feGaussianBlur stdDeviation="2"/>
<feComposite in2="hardAlpha" operator="out"/>
<feColorMatrix type="matrix" values="0 0 0 0 0 0 0 0 0 0 0 0 0 0 0 0 0 0 0.25 0"/>
<feBlend mode="normal" in2="BackgroundImageFix" result="effect1_dropShadow_273_4925"/>
<feColorMatrix in="SourceAlpha" type="matrix" values="0 0 0 0 0 0 0 0 0 0 0 0 0 0 0 0 0 0 127 0" result="hardAlpha"/>
<feOffset dy="4"/>
<feGaussianBlur stdDeviation="2"/>
<feComposite in2="hardAlpha" operator="out"/>
<feColorMatrix type="matrix" values="0 0 0 0 0 0 0 0 0 0 0 0 0 0 0 0 0 0 0.25 0"/>
<feBlend mode="normal" in2="effect1_dropShadow_273_4925" result="effect2_dropShadow_273_4925"/>
<feBlend mode="normal" in="SourceGraphic" in2="effect2_dropShadow_273_4925" result="shape"/>
</filter>
</defs>
</svg>
